# xmcd CD database file
#
# Track frame offsets:
#	150
#	18490
#	32997
#	49667
#	65190
#	84486
#	101236
#	120233
#	136394
#	158664
#	172087
#	191506
#	213921
#
# Disc length: 2975 seconds
#
# Revision: 2
# Processed by: cddbd v1.4PL0 Copyright (c) Steve Scherf et al.
# Submitted via: CDex 1.40Release
#
DISCID=b40b9d0d
DTITLE=Jerry Jeff Walker - Cowboy Boots and Bathin' Suits
DYEAR=1997
DGENRE=Country
TTITLE0=Come Away To Belize With Me
TTITLE1=Barefootin'
TTITLE2=Gringo In Belize
TTITLE3=Champagne Don't Hurt Me Baby
TTITLE4=Wanted For Love
TTITLE5=Boats To Build
TTITLE6=Sloop John B.
TTITLE7=Rhythm of the Rain
TTITLE8=Fred Neil Medley
TTITLE9=The Moon Is Still Over Her Shoulder
TTITLE10=Cowboy Boots and Bathin' Suits
TTITLE11=Those Were the Days
TTITLE12=Bonus Track
EXTD=YEAR: 1997 ID3G: 2
EXTT0=
EXTT1=
EXTT2=
EXTT3=
EXTT4=
EXTT5=
EXTT6=
EXTT7=
EXTT8=
EXTT9=
EXTT10=
EXTT11=
EXTT12=\n
PLAYORDER=
